<svg xmlns="http://www.w3.org/2000/svg" version="1.1" xmlns:xlink="http://www.w3.org/1999/xlink" xmlns:svgjs="http://svgjs.dev/svgjs" width="100%" height="100%" viewBox="0 0 1000 600"><rect width="1000" height="600" x="0" y="0" fill="#f9d342"/><g><circle r="166.66666666666666" cx="255.67632548014322" cy="277.89853867802645" fill="#292826" transform="matrix(1.404341894165558,0,0,1.404341894165558,0,-90.26457593827163)"/><path d="M257.85024617715334 352.89854298080127L199.15459436379768 352.89854298080127L199.15459436379768 202.89854390222575L257.85024617715334 202.89854390222575Q312.1980719302604 202.89854390222575 312.1980719302604 257.24636965533284L312.1980719302604 257.24636965533284L312.1980719302604 298.55071722769424Q312.1980719302604 352.89854298080127 257.85024617715334 352.89854298080127L257.85024617715334 352.89854298080127ZM217.42150246414758 219.4142442838644L217.42150246414758 336.3828425991626L258.93720269221546 336.3828425991626Q293.9311638299106 336.3828425991626 293.9311638299106 301.3888814614676L293.9311638299106 301.3888814614676L293.9311638299106 254.40820542155947Q293.9311638299106 219.4142442838644 258.93720269221546 219.4142442838644L258.93720269221546 219.4142442838644L217.42150246414758 219.4142442838644Z " fill="#f9d342" transform="matrix(1.404341894165558,0,0,1.404341894165558,0,-90.26457593827163)"/><path d="M523.9432386091671 352.89854298080127L505.6763305088172 352.89854298080127L505.6763305088172 202.89854390222575L525.9057989835849 202.89854390222575L604.8007260351786 324.6376735891856L604.8007260351786 202.89854390222575L623.0676341355285 202.89854390222575L623.0676341355285 352.89854298080127L602.8381656607609 352.89854298080127L523.9432386091671 231.15941329384142L523.9432386091671 352.89854298080127Z " fill="#292826" transform="matrix(1.404341894165558,0,0,1.404341894165558,0,-90.26457593827163)"/></g></svg>